solid "Design1<stl unit=MM>"
   facet normal 0.999390827019096 -0.034899496702503 0
      outer loop
         vertex 1.50243594974018 2.56975647374413 0
         vertex 1.5 2.5 5
         vertex 1.5 2.5 0
      endloop
   endfacet
   facet normal 0.999390827019096 0.034899496702503 0
      outer loop
         vertex 1.5 2.5 0
         vertex 1.5 2.5 5
         vertex 1.50243594974018 2.43024352625587 5
      endloop
   endfacet
   facet normal 0.999390827019096 0.034899496702503 0
      outer loop
         vertex 1.5 2.5 0
         vertex 1.50243594974018 2.43024352625587 5
         vertex 1.50243594974018 2.43024352625587 0
      endloop
   endfacet
   facet normal 0.994521895368274 0.104528463267652 0
      outer loop
         vertex 1.50243594974018 2.43024352625587 0
         vertex 1.50243594974018 2.43024352625587 5
         vertex 1.50973193125843 2.36082689903993 5
      endloop
   endfacet
   facet normal 0.994521895368274 0.104528463267652 0
      outer loop
         vertex 1.50243594974018 2.43024352625587 0
         vertex 1.50973193125843 2.36082689903993 5
         vertex 1.50973193125843 2.36082689903993 0
      endloop
   endfacet
   facet normal 0.984807753012208 0.173648177666931 0
      outer loop
         vertex 1.50973193125843 2.36082689903993 0
         vertex 1.50973193125843 2.36082689903993 5
         vertex 1.52185239926619 2.29208830918224 5
      endloop
   endfacet
   facet normal 0.984807753012208 0.173648177666931 0
      outer loop
         vertex 1.50973193125843 2.36082689903993 0
         vertex 1.52185239926619 2.29208830918224 5
         vertex 1.52185239926619 2.29208830918224 0
      endloop
   endfacet
   facet normal 0.970295726275996 0.241921895599668 0
      outer loop
         vertex 1.52185239926619 2.29208830918224 0
         vertex 1.52185239926619 2.29208830918224 5
         vertex 1.53873830406168 2.224362644183 5
      endloop
   endfacet
   facet normal 0.970295726275996 0.241921895599669 2.07390680201998E-17
      outer loop
         vertex 1.52185239926619 2.29208830918224 0
         vertex 1.53873830406168 2.224362644183 5
         vertex 1.53873830406168 2.224362644183 0
      endloop
   endfacet
   facet normal 0.951056516295155 0.309016994374944 2.68029517309004E-17
      outer loop
         vertex 1.53873830406168 2.224362644183 0
         vertex 1.53873830406168 2.224362644183 5
         vertex 1.56030737921409 2.15797985667433 5
      endloop
   endfacet
   facet normal 0.951056516295155 0.309016994374944 2.66645160259709E-17
      outer loop
         vertex 1.53873830406168 2.224362644183 0
         vertex 1.56030737921409 2.15797985667433 5
         vertex 1.56030737921409 2.15797985667433 0
      endloop
   endfacet
   facet normal 0.927183854566786 0.374606593415916 3.24919425927144E-17
      outer loop
         vertex 1.56030737921409 2.15797985667433 0
         vertex 1.56030737921409 2.15797985667433 5
         vertex 1.5864545423574 2.0932633569242 5
      endloop
   endfacet
   facet normal 0.927183854566787 0.374606593415913 0
      outer loop
         vertex 1.56030737921409 2.15797985667433 0
         vertex 1.5864545423574 2.0932633569242 5
         vertex 1.5864545423574 2.0932633569242 0
      endloop
   endfacet
   facet normal 0.898794046299166 0.438371146789079 0
      outer loop
         vertex 1.5864545423574 2.0932633569242 0
         vertex 1.5864545423574 2.0932633569242 5
         vertex 1.61705240714107 2.03052843721411 5
      endloop
   endfacet
   facet normal 0.898794046299168 0.438371146789074 -7.82159136761813E-17
      outer loop
         vertex 1.5864545423574 2.0932633569242 0
         vertex 1.61705240714107 2.03052843721411 5
         vertex 1.61705240714107 2.03052843721411 0
      endloop
   endfacet
   facet normal 0.866025403784439 0.499999999999999 -7.5115729936858E-17
      outer loop
         vertex 1.61705240714107 2.03052843721411 0
         vertex 1.61705240714107 2.03052843721411 5
         vertex 1.65195190384357 1.9700807357668 5
      endloop
   endfacet
   facet normal 0.866025403784437 0.500000000000003 -5.9254480057713E-18
      outer loop
         vertex 1.61705240714107 2.03052843721411 0
         vertex 1.65195190384357 1.9700807357668 5
         vertex 1.65195190384357 1.9700807357668 0
      endloop
   endfacet
   facet normal 0.829037572555042 0.559192903470746 -1.25484793730653E-17
      outer loop
         vertex 1.65195190384357 1.9700807357668 0
         vertex 1.65195190384357 1.9700807357668 5
         vertex 1.69098300562505 1.91221474770753 5
      endloop
   endfacet
   facet normal 0.829037572555041 0.559192903470747 1.18508960115426E-17
      outer loop
         vertex 1.65195190384357 1.9700807357668 0
         vertex 1.69098300562505 1.91221474770753 5
         vertex 1.69098300562505 1.91221474770753 0
      endloop
   endfacet
   facet normal 0.788010753606722 0.615661475325659 7.4744584775455E-18
      outer loop
         vertex 1.69098300562505 1.91221474770753 0
         vertex 1.69098300562505 1.91221474770753 5
         vertex 1.73395555688102 1.85721239031346 5
      endloop
   endfacet
   facet normal 0.788010753606723 0.615661475325657 -2.7257060826548E-17
      outer loop
         vertex 1.69098300562505 1.91221474770753 0
         vertex 1.73395555688102 1.85721239031346 5
         vertex 1.73395555688102 1.85721239031346 0
      endloop
   endfacet
   facet normal 0.743144825477394 0.669130606358858 -2.90189142836327E-17
      outer loop
         vertex 1.73395555688102 1.85721239031346 0
         vertex 1.73395555688102 1.85721239031346 5
         vertex 1.78066019966135 1.805341629541 5
      endloop
   endfacet
   facet normal 0.743144825477394 0.669130606358858 -2.60719712253937E-17
      outer loop
         vertex 1.73395555688102 1.85721239031346 0
         vertex 1.78066019966135 1.805341629541 5
         vertex 1.78066019966135 1.805341629541 0
      endloop
   endfacet
   facet normal 0.694658370458997 0.719339800338651 -3.2266777367121E-17
      outer loop
         vertex 1.78066019966135 1.805341629541 0
         vertex 1.78066019966135 1.805341629541 5
         vertex 1.83086939364114 1.75685517452261 5
      endloop
   endfacet
   facet normal 0.694658370458997 0.719339800338651 -3.1997419231165E-17
      outer loop
         vertex 1.78066019966135 1.805341629541 0
         vertex 1.83086939364114 1.75685517452261 5
         vertex 1.83086939364114 1.75685517452261 0
      endloop
   endfacet
   facet normal 0.64278760968654 0.766044443118977 -3.8567295041247E-17
      outer loop
         vertex 1.83086939364114 1.75685517452261 0
         vertex 1.83086939364114 1.75685517452261 5
         vertex 1.88433852467434 1.71198924639328 5
      endloop
   endfacet
   facet normal 0.642787609686539 0.766044443118978 -1.65912544161599E-17
      outer loop
         vertex 1.83086939364114 1.75685517452261 0
         vertex 1.88433852467434 1.71198924639328 5
         vertex 1.88433852467434 1.71198924639328 0
      endloop
   endfacet
   facet normal 0.587785252292474 0.809016994374947 -6.30232706853202E-18
      outer loop
         vertex 1.88433852467434 1.71198924639328 0
         vertex 1.88433852467434 1.71198924639328 5
         vertex 1.94080709652925 1.67096242744496 5
      endloop
   endfacet
   facet normal 0.587785252292472 0.809016994374948 1.89614336184682E-17
      outer loop
         vertex 1.88433852467434 1.71198924639328 0
         vertex 1.94080709652925 1.67096242744496 5
         vertex 1.94080709652925 1.67096242744496 0
      endloop
   endfacet
   facet normal 0.529919264233205 0.848048096156426 2.75932776561145E-17
      outer loop
         vertex 1.94080709652925 1.67096242744496 0
         vertex 1.94080709652925 1.67096242744496 5
         vertex 2 1.63397459621556 5
      endloop
   endfacet
   facet normal 0.529919264233204 0.848048096156427 4.62184944450161E-17
      outer loop
         vertex 1.94080709652925 1.67096242744496 0
         vertex 2 1.63397459621556 5
         vertex 2 1.63397459621556 0
      endloop
   endfacet
   facet normal 0.46947156278589 0.882947592858927 4.07201670634102E-17
      outer loop
         vertex 2 1.63397459621556 0
         vertex 2 1.63397459621556 5
         vertex 2.06162885321092 1.60120595370083 5
      endloop
   endfacet
   facet normal 0.469471562785893 0.882947592858926 0
      outer loop
         vertex 2 1.63397459621556 0
         vertex 2.06162885321092 1.60120595370083 5
         vertex 2.06162885321092 1.60120595370083 0
      endloop
   endfacet
   facet normal 0.406736643075799 0.913545457642601 0
      outer loop
         vertex 2.06162885321092 1.60120595370083 0
         vertex 2.06162885321092 1.60120595370083 5
         vertex 2.12539340658409 1.57281614543321 5
      endloop
   endfacet
   facet normal 0.406736643075799 0.913545457642601 -4.14781360403989E-18
      outer loop
         vertex 2.06162885321092 1.60120595370083 0
         vertex 2.12539340658409 1.57281614543321 5
         vertex 2.12539340658409 1.57281614543321 0
      endloop
   endfacet
   facet normal 0.342020143325668 0.939692620785909 -1.10871526427877E-17
      outer loop
         vertex 2.12539340658409 1.57281614543321 0
         vertex 2.12539340658409 1.57281614543321 5
         vertex 2.19098300562505 1.54894348370485 5
      endloop
   endfacet
   facet normal 0.342020143325673 0.939692620785907 -8.17711824796443E-17
      outer loop
         vertex 2.12539340658409 1.57281614543321 0
         vertex 2.19098300562505 1.54894348370485 5
         vertex 2.19098300562505 1.54894348370485 0
      endloop
   endfacet
   facet normal 0.275637355817 0.961261695938319 -8.3376161525074E-17
      outer loop
         vertex 2.19098300562505 1.54894348370485 0
         vertex 2.19098300562505 1.54894348370485 5
         vertex 2.25807810440033 1.529704273724 5
      endloop
   endfacet
   facet normal 0.275637355816994 0.96126169593832 0
      outer loop
         vertex 2.19098300562505 1.54894348370485 0
         vertex 2.25807810440033 1.529704273724 5
         vertex 2.25807810440033 1.529704273724 0
      endloop
   endfacet
   facet normal 0.207911690817761 0.978147600733805 0
      outer loop
         vertex 2.25807810440033 1.529704273724 0
         vertex 2.25807810440033 1.529704273724 5
         vertex 2.32635182233307 1.51519224698779 5
      endloop
   endfacet
   facet normal 0.207911690817763 0.978147600733805 -2.42943368236622E-17
      outer loop
         vertex 2.25807810440033 1.529704273724 0
         vertex 2.32635182233307 1.51519224698779 5
         vertex 2.32635182233307 1.51519224698779 0
      endloop
   endfacet
   facet normal 0.139173100960067 0.99026806874157 -3.08746893859095E-17
      outer loop
         vertex 2.32635182233307 1.51519224698779 0
         vertex 2.32635182233307 1.51519224698779 5
         vertex 2.39547153673235 1.50547810463173 5
      endloop
   endfacet
   facet normal 0.139173100960064 0.990268068741571 1.21471684118312E-17
      outer loop
         vertex 2.32635182233307 1.51519224698779 0
         vertex 2.39547153673235 1.50547810463173 5
         vertex 2.39547153673235 1.50547810463173 0
      endloop
   endfacet
   facet normal 0.0697564737441246 0.997564050259824 6.05040963026464E-18
      outer loop
         vertex 2.39547153673235 1.50547810463173 0
         vertex 2.39547153673235 1.50547810463173 5
         vertex 2.4651005032975 1.5006091729809 5
      endloop
   endfacet
   facet normal 0.0697564737441255 0.997564050259824 -6.07358420591567E-18
      outer loop
         vertex 2.39547153673235 1.50547810463173 0
         vertex 2.4651005032975 1.5006091729809 5
         vertex 2.4651005032975 1.5006091729809 0
      endloop
   endfacet
   facet normal 0 1 0
      outer loop
         vertex 2.4651005032975 1.5006091729809 0
         vertex 2.4651005032975 1.5006091729809 5
         vertex 2.5348994967025 1.5006091729809 5
      endloop
   endfacet
   facet normal 0 1 0
      outer loop
         vertex 2.4651005032975 1.5006091729809 0
         vertex 2.5348994967025 1.5006091729809 5
         vertex 2.5348994967025 1.5006091729809 0
      endloop
   endfacet
   facet normal -0.0697564737441255 0.997564050259824 1.21008192605294E-17
      outer loop
         vertex 2.5348994967025 1.5006091729809 0
         vertex 2.5348994967025 1.5006091729809 5
         vertex 2.60452846326765 1.50547810463173 5
      endloop
   endfacet
   facet normal -0.0697564737441242 0.997564050259824 -6.07358420591556E-18
      outer loop
         vertex 2.5348994967025 1.5006091729809 0
         vertex 2.60452846326765 1.50547810463173 5
         vertex 2.60452846326765 1.50547810463173 0
      endloop
   endfacet
   facet normal -0.139173100960064 0.990268068741571 -1.20713422729956E-17
      outer loop
         vertex 2.60452846326765 1.50547810463173 0
         vertex 2.60452846326765 1.50547810463173 5
         vertex 2.67364817766693 1.51519224698779 5
      endloop
   endfacet
   facet normal -0.139173100960064 0.990268068741571 -1.21471684118312E-17
      outer loop
         vertex 2.60452846326765 1.50547810463173 0
         vertex 2.67364817766693 1.51519224698779 5
         vertex 2.67364817766693 1.51519224698779 0
      endloop
   endfacet
   facet normal -0.207911690817758 0.978147600733806 -1.80334645495798E-17
      outer loop
         vertex 2.67364817766693 1.51519224698779 0
         vertex 2.67364817766693 1.51519224698779 5
         vertex 2.74192189559967 1.529704273724 5
      endloop
   endfacet
   facet normal -0.207911690817764 0.978147600733805 6.69575624652158E-17
      outer loop
         vertex 2.67364817766693 1.51519224698779 0
         vertex 2.74192189559967 1.529704273724 5
         vertex 2.74192189559967 1.529704273724 0
      endloop
   endfacet
   facet normal -0.275637355817 0.961261695938319 5.9468431925478E-17
      outer loop
         vertex 2.74192189559967 1.529704273724 0
         vertex 2.74192189559967 1.529704273724 5
         vertex 2.80901699437495 1.54894348370485 5
      endloop
   endfacet
   facet normal -0.275637355817 0.961261695938319 5.92544800577131E-17
      outer loop
         vertex 2.74192189559967 1.529704273724 0
         vertex 2.80901699437495 1.54894348370485 5
         vertex 2.80901699437495 1.54894348370485 0
      endloop
   endfacet
   facet normal -0.342020143325671 0.939692620785908 5.18398238797746E-17
      outer loop
         vertex 2.80901699437495 1.54894348370485 0
         vertex 2.80901699437495 1.54894348370485 5
         vertex 2.87460659341591 1.57281614543321 5
      endloop
   endfacet
   facet normal -0.342020143325668 0.939692620785909 1.12583512109655E-17
      outer loop
         vertex 2.80901699437495 1.54894348370485 0
         vertex 2.87460659341591 1.57281614543321 5
         vertex 2.87460659341591 1.57281614543321 0
      endloop
   endfacet
   facet normal -0.406736643075799 0.913545457642601 4.3399386294355E-18
      outer loop
         vertex 2.87460659341591 1.57281614543321 0
         vertex 2.87460659341591 1.57281614543321 5
         vertex 2.93837114678908 1.60120595370083 5
      endloop
   endfacet
   facet normal -0.406736643075799 0.913545457642601 4.74035840461705E-18
      outer loop
         vertex 2.87460659341591 1.57281614543321 0
         vertex 2.93837114678908 1.60120595370083 5
         vertex 2.93837114678908 1.60120595370083 0
      endloop
   endfacet
   facet normal -0.469471562785893 0.882947592858926 -2.4284191286706E-18
      outer loop
         vertex 2.93837114678908 1.60120595370083 0
         vertex 2.93837114678908 1.60120595370083 5
         vertex 3 1.63397459621556 5
      endloop
   endfacet
   facet normal -0.469471562785893 0.882947592858926 0
      outer loop
         vertex 2.93837114678908 1.60120595370083 0
         vertex 3 1.63397459621556 5
         vertex 3 1.63397459621556 0
      endloop
   endfacet
   facet normal -0.529919264233204 0.848048096156427 0
      outer loop
         vertex 3 1.63397459621556 0
         vertex 3 1.63397459621556 5
         vertex 3.05919290347075 1.67096242744496 5
      endloop
   endfacet
   facet normal -0.529919264233202 0.848048096156428 -2.72570608265482E-17
      outer loop
         vertex 3 1.63397459621556 0
         vertex 3.05919290347075 1.67096242744496 5
         vertex 3.05919290347075 1.67096242744496 0
      endloop
   endfacet
   facet normal -0.587785252292472 0.809016994374948 -1.91887948310858E-17
      outer loop
         vertex 3.05919290347075 1.67096242744496 0
         vertex 3.05919290347075 1.67096242744496 5
         vertex 3.11566147532566 1.71198924639328 5
      endloop
   endfacet
   facet normal -0.587785252292475 0.809016994374946 3.19974192311652E-17
      outer loop
         vertex 3.05919290347075 1.67096242744496 0
         vertex 3.11566147532566 1.71198924639328 5
         vertex 3.11566147532566 1.71198924639328 0
      endloop
   endfacet
   facet normal -0.642787609686538 0.766044443118979 4.50621117030217E-17
      outer loop
         vertex 3.11566147532566 1.71198924639328 0
         vertex 3.11566147532566 1.71198924639328 5
         vertex 3.16913060635886 1.75685517452261 5
      endloop
   endfacet
   facet normal -0.642787609686539 0.766044443118979 6.75501072657925E-17
      outer loop
         vertex 3.11566147532566 1.71198924639328 0
         vertex 3.16913060635886 1.75685517452261 5
         vertex 3.16913060635886 1.75685517452261 0
      endloop
   endfacet
   facet normal -0.694658370458997 0.719339800338651 6.23927819425964E-17
      outer loop
         vertex 3.16913060635886 1.75685517452261 0
         vertex 3.16913060635886 1.75685517452261 5
         vertex 3.21933980033865 1.805341629541 5
      endloop
   endfacet
   facet normal -0.694658370458997 0.719339800338651 6.28097488611758E-17
      outer loop
         vertex 3.16913060635886 1.75685517452261 0
         vertex 3.21933980033865 1.805341629541 5
         vertex 3.21933980033865 1.805341629541 0
      endloop
   endfacet
   facet normal -0.743144825477397 0.669130606358855 5.80378285672651E-17
      outer loop
         vertex 3.21933980033865 1.805341629541 0
         vertex 3.21933980033865 1.805341629541 5
         vertex 3.26604444311898 1.85721239031346 5
      endloop
   endfacet
   facet normal -0.743144825477393 0.66913060635886 -3.43675984334736E-17
      outer loop
         vertex 3.21933980033865 1.805341629541 0
         vertex 3.26604444311898 1.85721239031346 5
         vertex 3.26604444311898 1.85721239031346 0
      endloop
   endfacet
   facet normal -0.788010753606719 0.615661475325662 -4.1648977317639E-17
      outer loop
         vertex 3.26604444311898 1.85721239031346 0
         vertex 3.26604444311898 1.85721239031346 5
         vertex 3.30901699437495 1.91221474770753 5
      endloop
   endfacet
   facet normal -0.788010753606722 0.615661475325658 2.60719712253938E-17
      outer loop
         vertex 3.26604444311898 1.85721239031346 0
         vertex 3.30901699437495 1.91221474770753 5
         vertex 3.30901699437495 1.91221474770753 0
      endloop
   endfacet
   facet normal -0.829037572555044 0.559192903470744 2.42511264312583E-17
      outer loop
         vertex 3.30901699437495 1.91221474770753 0
         vertex 3.30901699437495 1.91221474770753 5
         vertex 3.34804809615643 1.9700807357668 5
      endloop
   endfacet
   facet normal -0.829037572555043 0.559192903470745 0
      outer loop
         vertex 3.30901699437495 1.91221474770753 0
         vertex 3.34804809615643 1.9700807357668 5
         vertex 3.34804809615643 1.9700807357668 0
      endloop
   endfacet
   facet normal -0.866025403784437 0.500000000000003 0
      outer loop
         vertex 3.34804809615643 1.9700807357668 0
         vertex 3.34804809615643 1.9700807357668 5
         vertex 3.38294759285893 2.03052843721411 5
      endloop
   endfacet
   facet normal -0.866025403784438 0.500000000000001 3.19974192311653E-17
      outer loop
         vertex 3.34804809615643 1.9700807357668 0
         vertex 3.38294759285893 2.03052843721411 5
         vertex 3.38294759285893 2.03052843721411 0
      endloop
   endfacet
   facet normal -0.898794046299168 0.438371146789074 3.99353206328735E-17
      outer loop
         vertex 3.38294759285893 2.03052843721411 0
         vertex 3.38294759285893 2.03052843721411 5
         vertex 3.4135454576426 2.0932633569242 5
      endloop
   endfacet
   facet normal -0.898794046299167 0.438371146789077 0
      outer loop
         vertex 3.38294759285893 2.03052843721411 0
         vertex 3.4135454576426 2.0932633569242 5
         vertex 3.4135454576426 2.0932633569242 0
      endloop
   endfacet
   facet normal -0.927183854566786 0.374606593415916 0
      outer loop
         vertex 3.4135454576426 2.0932633569242 0
         vertex 3.4135454576426 2.0932633569242 5
         vertex 3.43969262078591 2.15797985667433 5
      endloop
   endfacet
   facet normal -0.927183854566788 0.37460659341591 7.9993548077913E-17
      outer loop
         vertex 3.4135454576426 2.0932633569242 0
         vertex 3.43969262078591 2.15797985667433 5
         vertex 3.43969262078591 2.15797985667433 0
      endloop
   endfacet
   facet normal -0.951056516295155 0.309016994374943 8.24910032898962E-17
      outer loop
         vertex 3.43969262078591 2.15797985667433 0
         vertex 3.43969262078591 2.15797985667433 5
         vertex 3.46126169593832 2.224362644183 5
      endloop
   endfacet
   facet normal -0.951056516295153 0.30901699437495 -2.66645160259709E-17
      outer loop
         vertex 3.43969262078591 2.15797985667433 0
         vertex 3.46126169593832 2.224362644183 5
         vertex 3.46126169593832 2.224362644183 0
      endloop
   endfacet
   facet normal -0.970295726275996 0.241921895599671 -2.0983379582478E-17
      outer loop
         vertex 3.46126169593832 2.224362644183 0
         vertex 3.46126169593832 2.224362644183 5
         vertex 3.47814760073381 2.29208830918224 5
      endloop
   endfacet
   facet normal -0.970295726275996 0.241921895599668 2.07390680201997E-17
      outer loop
         vertex 3.46126169593832 2.224362644183 0
         vertex 3.47814760073381 2.29208830918224 5
         vertex 3.47814760073381 2.29208830918224 0
      endloop
   endfacet
   facet normal -0.984807753012209 0.173648177666927 1.50615785179705E-17
      outer loop
         vertex 3.47814760073381 2.29208830918224 0
         vertex 3.47814760073381 2.29208830918224 5
         vertex 3.49026806874157 2.36082689903993 5
      endloop
   endfacet
   facet normal -0.984807753012209 0.173648177666928 0
      outer loop
         vertex 3.47814760073381 2.29208830918224 0
         vertex 3.49026806874157 2.36082689903993 5
         vertex 3.49026806874157 2.36082689903993 0
      endloop
   endfacet
   facet normal -0.994521895368273 0.104528463267653 0
      outer loop
         vertex 3.49026806874157 2.36082689903993 0
         vertex 3.49026806874157 2.36082689903993 5
         vertex 3.49756405025982 2.43024352625587 5
      endloop
   endfacet
   facet normal -0.994521895368274 0.104528463267652 8.88817200865695E-18
      outer loop
         vertex 3.49026806874157 2.36082689903993 0
         vertex 3.49756405025982 2.43024352625587 5
         vertex 3.49756405025982 2.43024352625587 0
      endloop
   endfacet
   facet normal -0.999390827019096 0.0348994967025059 3.0270488114806E-18
      outer loop
         vertex 3.49756405025982 2.43024352625587 0
         vertex 3.49756405025982 2.43024352625587 5
         vertex 3.5 2.5 5
      endloop
   endfacet
   facet normal -0.999390827019096 0.0348994967025061 0
      outer loop
         vertex 3.49756405025982 2.43024352625587 0
         vertex 3.5 2.5 5
         vertex 3.5 2.5 0
      endloop
   endfacet
   facet normal -0.999390827019096 -0.0348994967025061 0
      outer loop
         vertex 3.5 2.5 0
         vertex 3.5 2.5 5
         vertex 3.49756405025982 2.56975647374413 5
      endloop
   endfacet
   facet normal -0.999390827019096 -0.0348994967025061 0
      outer loop
         vertex 3.5 2.5 0
         vertex 3.49756405025982 2.56975647374413 5
         vertex 3.49756405025982 2.56975647374413 0
      endloop
   endfacet
   facet normal -0.994521895368274 -0.104528463267646 0
      outer loop
         vertex 3.49756405025982 2.56975647374413 0
         vertex 3.49756405025982 2.56975647374413 5
         vertex 3.49026806874157 2.63917310096007 5
      endloop
   endfacet
   facet normal -0.994521895368274 -0.104528463267647 8.88817200865701E-18
      outer loop
         vertex 3.49756405025982 2.56975647374413 0
         vertex 3.49026806874157 2.63917310096007 5
         vertex 3.49026806874157 2.63917310096007 0
      endloop
   endfacet
   facet normal -0.984807753012207 -0.173648177666935 1.50615785179712E-17
      outer loop
         vertex 3.49026806874157 2.63917310096007 0
         vertex 3.49026806874157 2.63917310096007 5
         vertex 3.47814760073381 2.70791169081776 5
      endloop
   endfacet
   facet normal -0.984807753012207 -0.173648177666934 0
      outer loop
         vertex 3.49026806874157 2.63917310096007 0
         vertex 3.47814760073381 2.70791169081776 5
         vertex 3.47814760073381 2.70791169081776 0
      endloop
   endfacet
   facet normal -0.970295726275997 -0.241921895599666 0
      outer loop
         vertex 3.47814760073381 2.70791169081776 0
         vertex 3.47814760073381 2.70791169081776 5
         vertex 3.46126169593832 2.775637355817 5
      endloop
   endfacet
   facet normal -0.970295726275997 -0.241921895599666 0
      outer loop
         vertex 3.47814760073381 2.70791169081776 0
         vertex 3.46126169593832 2.775637355817 5
         vertex 3.46126169593832 2.775637355817 0
      endloop
   endfacet
   facet normal -0.951056516295155 -0.309016994374944 0
      outer loop
         vertex 3.46126169593832 2.775637355817 0
         vertex 3.46126169593832 2.775637355817 5
         vertex 3.43969262078591 2.84202014332567 5
      endloop
   endfacet
   facet normal -0.951056516295153 -0.30901699437495 8.23637272802211E-17
      outer loop
         vertex 3.46126169593832 2.775637355817 0
         vertex 3.43969262078591 2.84202014332567 5
         vertex 3.43969262078591 2.84202014332567 0
      endloop
   endfacet
   facet normal -0.927183854566786 -0.374606593415916 8.04203799531835E-17
      outer loop
         vertex 3.43969262078591 2.84202014332567 0
         vertex 3.43969262078591 2.84202014332567 5
         vertex 3.4135454576426 2.9067366430758 5
      endloop
   endfacet
   facet normal -0.927183854566788 -0.37460659341591 0
      outer loop
         vertex 3.43969262078591 2.84202014332567 0
         vertex 3.4135454576426 2.9067366430758 5
         vertex 3.4135454576426 2.9067366430758 0
      endloop
   endfacet
   facet normal -0.898794046299168 -0.438371146789074 0
      outer loop
         vertex 3.4135454576426 2.9067366430758 0
         vertex 3.4135454576426 2.9067366430758 5
         vertex 3.38294759285893 2.96947156278589 5
      endloop
   endfacet
   facet normal -0.898794046299167 -0.438371146789077 3.79228672369366E-17
      outer loop
         vertex 3.4135454576426 2.9067366430758 0
         vertex 3.38294759285893 2.96947156278589 5
         vertex 3.38294759285893 2.96947156278589 0
      endloop
   endfacet
   facet normal -0.866025403784437 -0.500000000000003 4.33680868994205E-17
      outer loop
         vertex 3.38294759285893 2.96947156278589 0
         vertex 3.38294759285893 2.96947156278589 5
         vertex 3.34804809615643 3.02991926423321 5
      endloop
   endfacet
   facet normal -0.866025403784438 -0.500000000000001 0
      outer loop
         vertex 3.38294759285893 2.96947156278589 0
         vertex 3.34804809615643 3.02991926423321 5
         vertex 3.34804809615643 3.02991926423321 0
      endloop
   endfacet
   facet normal -0.829037572555044 -0.559192903470744 0
      outer loop
         vertex 3.34804809615643 3.02991926423321 0
         vertex 3.34804809615643 3.02991926423321 5
         vertex 3.30901699437495 3.08778525229247 5
      endloop
   endfacet
   facet normal -0.829037572555044 -0.559192903470744 0
      outer loop
         vertex 3.34804809615643 3.02991926423321 0
         vertex 3.30901699437495 3.08778525229247 5
         vertex 3.30901699437495 3.08778525229247 0
      endloop
   endfacet
   facet normal -0.788010753606721 -0.61566147532566 0
      outer loop
         vertex 3.30901699437495 3.08778525229247 0
         vertex 3.30901699437495 3.08778525229247 5
         vertex 3.26604444311898 3.14278760968654 5
      endloop
   endfacet
   facet normal -0.788010753606721 -0.61566147532566 0
      outer loop
         vertex 3.30901699437495 3.08778525229247 0
         vertex 3.26604444311898 3.14278760968654 5
         vertex 3.26604444311898 3.14278760968654 0
      endloop
   endfacet
   facet normal -0.743144825477393 -0.66913060635886 0
      outer loop
         vertex 3.26604444311898 3.14278760968654 0
         vertex 3.26604444311898 3.14278760968654 5
         vertex 3.21933980033865 3.194658370459 5
      endloop
   endfacet
   facet normal -0.743144825477393 -0.66913060635886 0
      outer loop
         vertex 3.26604444311898 3.14278760968654 0
         vertex 3.21933980033865 3.194658370459 5
         vertex 3.21933980033865 3.194658370459 0
      endloop
   endfacet
   facet normal -0.694658370458997 -0.719339800338651 0
      outer loop
         vertex 3.21933980033865 3.194658370459 0
         vertex 3.21933980033865 3.194658370459 5
         vertex 3.16913060635886 3.24314482547739 5
      endloop
   endfacet
   facet normal -0.694658370458997 -0.719339800338651 0
      outer loop
         vertex 3.21933980033865 3.194658370459 0
         vertex 3.16913060635886 3.24314482547739 5
         vertex 3.16913060635886 3.24314482547739 0
      endloop
   endfacet
   facet normal -0.642787609686542 -0.766044443118976 0
      outer loop
         vertex 3.16913060635886 3.24314482547739 0
         vertex 3.16913060635886 3.24314482547739 5
         vertex 3.11566147532566 3.28801075360672 5
      endloop
   endfacet
   facet normal -0.642787609686538 -0.766044443118979 6.63650176646388E-17
      outer loop
         vertex 3.16913060635886 3.24314482547739 0
         vertex 3.11566147532566 3.28801075360672 5
         vertex 3.11566147532566 3.28801075360672 0
      endloop
   endfacet
   facet normal -0.587785252292468 -0.809016994374951 7.01710386303212E-17
      outer loop
         vertex 3.11566147532566 3.28801075360672 0
         vertex 3.11566147532566 3.28801075360672 5
         vertex 3.05919290347075 3.32903757255504 5
      endloop
   endfacet
   facet normal -0.587785252292472 -0.809016994374948 0
      outer loop
         vertex 3.11566147532566 3.28801075360672 0
         vertex 3.05919290347075 3.32903757255504 5
         vertex 3.05919290347075 3.32903757255504 0
      endloop
   endfacet
   facet normal -0.529919264233207 -0.848048096156425 0
      outer loop
         vertex 3.05919290347075 3.32903757255504 0
         vertex 3.05919290347075 3.32903757255504 5
         vertex 3 3.36602540378444 5
      endloop
   endfacet
   facet normal -0.529919264233207 -0.848048096156425 0
      outer loop
         vertex 3.05919290347075 3.32903757255504 0
         vertex 3 3.36602540378444 5
         vertex 3 3.36602540378444 0
      endloop
   endfacet
   facet normal -0.46947156278589 -0.882947592858927 0
      outer loop
         vertex 3 3.36602540378444 0
         vertex 3 3.36602540378444 5
         vertex 2.93837114678908 3.39879404629917 5
      endloop
   endfacet
   facet normal -0.469471562785893 -0.882947592858926 -4.14781360403994E-17
      outer loop
         vertex 3 3.36602540378444 0
         vertex 2.93837114678908 3.39879404629917 5
         vertex 2.93837114678908 3.39879404629917 0
      endloop
   endfacet
   facet normal -0.406736643075802 -0.9135454576426 -3.52787801641796E-17
      outer loop
         vertex 2.93837114678908 3.39879404629917 0
         vertex 2.93837114678908 3.39879404629917 5
         vertex 2.87460659341591 3.42718385456679 5
      endloop
   endfacet
   facet normal -0.406736643075802 -0.9135454576426 -3.49601432340507E-17
      outer loop
         vertex 2.93837114678908 3.39879404629917 0
         vertex 2.87460659341591 3.42718385456679 5
         vertex 2.87460659341591 3.42718385456679 0
      endloop
   endfacet
   facet normal -0.342020143325667 -0.939692620785909 -2.96655185941994E-17
      outer loop
         vertex 2.87460659341591 3.42718385456679 0
         vertex 2.87460659341591 3.42718385456679 5
         vertex 2.80901699437495 3.45105651629515 5
      endloop
   endfacet
   facet normal -0.342020143325665 -0.93969262078591 0
      outer loop
         vertex 2.87460659341591 3.42718385456679 0
         vertex 2.80901699437495 3.45105651629515 5
         vertex 2.80901699437495 3.45105651629515 0
      endloop
   endfacet
   facet normal -0.275637355817 -0.961261695938319 0
      outer loop
         vertex 2.80901699437495 3.45105651629515 0
         vertex 2.80901699437495 3.45105651629515 5
         vertex 2.74192189559967 3.470295726276 5
      endloop
   endfacet
   facet normal -0.275637355817 -0.961261695938319 0
      outer loop
         vertex 2.80901699437495 3.45105651629515 0
         vertex 2.74192189559967 3.470295726276 5
         vertex 2.74192189559967 3.470295726276 0
      endloop
   endfacet
   facet normal -0.207911690817761 -0.978147600733805 0
      outer loop
         vertex 2.74192189559967 3.470295726276 0
         vertex 2.74192189559967 3.470295726276 5
         vertex 2.67364817766693 3.48480775301221 5
      endloop
   endfacet
   facet normal -0.207911690817761 -0.978147600733805 0
      outer loop
         vertex 2.74192189559967 3.470295726276 0
         vertex 2.67364817766693 3.48480775301221 5
         vertex 2.67364817766693 3.48480775301221 0
      endloop
   endfacet
   facet normal -0.139173100960067 -0.99026806874157 0
      outer loop
         vertex 2.67364817766693 3.48480775301221 0
         vertex 2.67364817766693 3.48480775301221 5
         vertex 2.60452846326765 3.49452189536827 5
      endloop
   endfacet
   facet normal -0.139173100960067 -0.99026806874157 -1.21471684118312E-17
      outer loop
         vertex 2.67364817766693 3.48480775301221 0
         vertex 2.60452846326765 3.49452189536827 5
         vertex 2.60452846326765 3.49452189536827 0
      endloop
   endfacet
   facet normal -0.0697564737441246 -0.997564050259824 -6.05040963026464E-18
      outer loop
         vertex 2.60452846326765 3.49452189536827 0
         vertex 2.60452846326765 3.49452189536827 5
         vertex 2.5348994967025 3.4993908270191 5
      endloop
   endfacet
   facet normal -0.0697564737441242 -0.997564050259824 0
      outer loop
         vertex 2.60452846326765 3.49452189536827 0
         vertex 2.5348994967025 3.4993908270191 5
         vertex 2.5348994967025 3.4993908270191 0
      endloop
   endfacet
   facet normal 0 -1 0
      outer loop
         vertex 2.5348994967025 3.4993908270191 0
         vertex 2.5348994967025 3.4993908270191 5
         vertex 2.4651005032975 3.4993908270191 5
      endloop
   endfacet
   facet normal 0 -1 0
      outer loop
         vertex 2.5348994967025 3.4993908270191 0
         vertex 2.4651005032975 3.4993908270191 5
         vertex 2.4651005032975 3.4993908270191 0
      endloop
   endfacet
   facet normal 0.0697564737441246 -0.997564050259824 0
      outer loop
         vertex 2.4651005032975 3.4993908270191 0
         vertex 2.4651005032975 3.4993908270191 5
         vertex 2.39547153673235 3.49452189536827 5
      endloop
   endfacet
   facet normal 0.0697564737441246 -0.997564050259824 0
      outer loop
         vertex 2.4651005032975 3.4993908270191 0
         vertex 2.39547153673235 3.49452189536827 5
         vertex 2.39547153673235 3.49452189536827 0
      endloop
   endfacet
   facet normal 0.139173100960067 -0.99026806874157 0
      outer loop
         vertex 2.39547153673235 3.49452189536827 0
         vertex 2.39547153673235 3.49452189536827 5
         vertex 2.32635182233307 3.48480775301221 5
      endloop
   endfacet
   facet normal 0.139173100960067 -0.99026806874157 0
      outer loop
         vertex 2.39547153673235 3.49452189536827 0
         vertex 2.32635182233307 3.48480775301221 5
         vertex 2.32635182233307 3.48480775301221 0
      endloop
   endfacet
   facet normal 0.207911690817761 -0.978147600733805 0
      outer loop
         vertex 2.32635182233307 3.48480775301221 0
         vertex 2.32635182233307 3.48480775301221 5
         vertex 2.25807810440033 3.470295726276 5
      endloop
   endfacet
   facet normal 0.207911690817761 -0.978147600733805 0
      outer loop
         vertex 2.32635182233307 3.48480775301221 0
         vertex 2.25807810440033 3.470295726276 5
         vertex 2.25807810440033 3.470295726276 0
      endloop
   endfacet
   facet normal 0.275637355816994 -0.96126169593832 0
      outer loop
         vertex 2.25807810440033 3.470295726276 0
         vertex 2.25807810440033 3.470295726276 5
         vertex 2.19098300562505 3.45105651629515 5
      endloop
   endfacet
   facet normal 0.275637355816994 -0.96126169593832 0
      outer loop
         vertex 2.25807810440033 3.470295726276 0
         vertex 2.19098300562505 3.45105651629515 5
         vertex 2.19098300562505 3.45105651629515 0
      endloop
   endfacet
   facet normal 0.342020143325673 -0.939692620785907 0
      outer loop
         vertex 2.19098300562505 3.45105651629515 0
         vertex 2.19098300562505 3.45105651629515 5
         vertex 2.12539340658409 3.42718385456679 5
      endloop
   endfacet
   facet normal 0.342020143325673 -0.939692620785907 0
      outer loop
         vertex 2.19098300562505 3.45105651629515 0
         vertex 2.12539340658409 3.42718385456679 5
         vertex 2.12539340658409 3.42718385456679 0
      endloop
   endfacet
   facet normal 0.406736643075799 -0.913545457642601 0
      outer loop
         vertex 2.12539340658409 3.42718385456679 0
         vertex 2.12539340658409 3.42718385456679 5
         vertex 2.06162885321092 3.39879404629917 5
      endloop
   endfacet
   facet normal 0.406736643075799 -0.913545457642601 0
      outer loop
         vertex 2.12539340658409 3.42718385456679 0
         vertex 2.06162885321092 3.39879404629917 5
         vertex 2.06162885321092 3.39879404629917 0
      endloop
   endfacet
   facet normal 0.469471562785893 -0.882947592858926 0
      outer loop
         vertex 2.06162885321092 3.39879404629917 0
         vertex 2.06162885321092 3.39879404629917 5
         vertex 2 3.36602540378444 5
      endloop
   endfacet
   facet normal 0.469471562785893 -0.882947592858926 0
      outer loop
         vertex 2.06162885321092 3.39879404629917 0
         vertex 2 3.36602540378444 5
         vertex 2 3.36602540378444 0
      endloop
   endfacet
   facet normal 0.529919264233207 -0.848048096156425 0
      outer loop
         vertex 2 3.36602540378444 0
         vertex 2 3.36602540378444 5
         vertex 1.94080709652925 3.32903757255504 5
      endloop
   endfacet
   facet normal 0.529919264233207 -0.848048096156425 0
      outer loop
         vertex 2 3.36602540378444 0
         vertex 1.94080709652925 3.32903757255504 5
         vertex 1.94080709652925 3.32903757255504 0
      endloop
   endfacet
   facet normal 0.587785252292468 -0.809016994374951 0
      outer loop
         vertex 1.94080709652925 3.32903757255504 0
         vertex 1.94080709652925 3.32903757255504 5
         vertex 1.88433852467434 3.28801075360672 5
      endloop
   endfacet
   facet normal 0.587785252292468 -0.809016994374951 0
      outer loop
         vertex 1.94080709652925 3.32903757255504 0
         vertex 1.88433852467434 3.28801075360672 5
         vertex 1.88433852467434 3.28801075360672 0
      endloop
   endfacet
   facet normal 0.64278760968654 -0.766044443118977 0
      outer loop
         vertex 1.88433852467434 3.28801075360672 0
         vertex 1.88433852467434 3.28801075360672 5
         vertex 1.83086939364114 3.24314482547739 5
      endloop
   endfacet
   facet normal 0.64278760968654 -0.766044443118978 -1.06658064103884E-17
      outer loop
         vertex 1.88433852467434 3.28801075360672 0
         vertex 1.83086939364114 3.24314482547739 5
         vertex 1.83086939364114 3.24314482547739 0
      endloop
   endfacet
   facet normal 0.694658370458997 -0.719339800338651 -2.14077279164556E-18
      outer loop
         vertex 1.83086939364114 3.24314482547739 0
         vertex 1.83086939364114 3.24314482547739 5
         vertex 1.78066019966135 3.194658370459 5
      endloop
   endfacet
   facet normal 0.694658370458997 -0.719339800338651 -1.18508960115426E-18
      outer loop
         vertex 1.83086939364114 3.24314482547739 0
         vertex 1.78066019966135 3.194658370459 5
         vertex 1.78066019966135 3.194658370459 0
      endloop
   endfacet
   facet normal 0.743144825477396 -0.669130606358857 6.41971017305108E-18
      outer loop
         vertex 1.78066019966135 3.194658370459 0
         vertex 1.78066019966135 3.194658370459 5
         vertex 1.73395555688102 3.14278760968654 5
      endloop
   endfacet
   facet normal 0.743144825477395 -0.669130606358857 0
      outer loop
         vertex 1.78066019966135 3.194658370459 0
         vertex 1.73395555688102 3.14278760968654 5
         vertex 1.73395555688102 3.14278760968654 0
      endloop
   endfacet
   facet normal 0.788010753606721 -0.61566147532566 0
      outer loop
         vertex 1.73395555688102 3.14278760968654 0
         vertex 1.73395555688102 3.14278760968654 5
         vertex 1.69098300562505 3.08778525229247 5
      endloop
   endfacet
   facet normal 0.788010753606721 -0.61566147532566 0
      outer loop
         vertex 1.73395555688102 3.14278760968654 0
         vertex 1.69098300562505 3.08778525229247 5
         vertex 1.69098300562505 3.08778525229247 0
      endloop
   endfacet
   facet normal 0.829037572555042 -0.559192903470746 0
      outer loop
         vertex 1.69098300562505 3.08778525229247 0
         vertex 1.69098300562505 3.08778525229247 5
         vertex 1.65195190384357 3.02991926423321 5
      endloop
   endfacet
   facet normal 0.829037572555042 -0.559192903470746 0
      outer loop
         vertex 1.69098300562505 3.08778525229247 0
         vertex 1.65195190384357 3.02991926423321 5
         vertex 1.65195190384357 3.02991926423321 0
      endloop
   endfacet
   facet normal 0.866025403784437 -0.500000000000003 0
      outer loop
         vertex 1.65195190384357 3.02991926423321 0
         vertex 1.65195190384357 3.02991926423321 5
         vertex 1.61705240714107 2.96947156278589 5
      endloop
   endfacet
   facet normal 0.866025403784437 -0.500000000000003 0
      outer loop
         vertex 1.65195190384357 3.02991926423321 0
         vertex 1.61705240714107 2.96947156278589 5
         vertex 1.61705240714107 2.96947156278589 0
      endloop
   endfacet
   facet normal 0.898794046299167 -0.438371146789077 0
      outer loop
         vertex 1.61705240714107 2.96947156278589 0
         vertex 1.61705240714107 2.96947156278589 5
         vertex 1.5864545423574 2.9067366430758 5
      endloop
   endfacet
   facet normal 0.898794046299167 -0.438371146789077 0
      outer loop
         vertex 1.61705240714107 2.96947156278589 0
         vertex 1.5864545423574 2.9067366430758 5
         vertex 1.5864545423574 2.9067366430758 0
      endloop
   endfacet
   facet normal 0.927183854566789 -0.374606593415908 0
      outer loop
         vertex 1.5864545423574 2.9067366430758 0
         vertex 1.5864545423574 2.9067366430758 5
         vertex 1.56030737921409 2.84202014332567 5
      endloop
   endfacet
   facet normal 0.927183854566789 -0.374606593415908 0
      outer loop
         vertex 1.5864545423574 2.9067366430758 0
         vertex 1.56030737921409 2.84202014332567 5
         vertex 1.56030737921409 2.84202014332567 0
      endloop
   endfacet
   facet normal 0.951056516295153 -0.30901699437495 0
      outer loop
         vertex 1.56030737921409 2.84202014332567 0
         vertex 1.56030737921409 2.84202014332567 5
         vertex 1.53873830406168 2.775637355817 5
      endloop
   endfacet
   facet normal 0.951056516295153 -0.30901699437495 0
      outer loop
         vertex 1.56030737921409 2.84202014332567 0
         vertex 1.53873830406168 2.775637355817 5
         vertex 1.53873830406168 2.775637355817 0
      endloop
   endfacet
   facet normal 0.970295726275996 -0.241921895599669 0
      outer loop
         vertex 1.53873830406168 2.775637355817 0
         vertex 1.53873830406168 2.775637355817 5
         vertex 1.52185239926619 2.70791169081776 5
      endloop
   endfacet
   facet normal 0.970295726275996 -0.241921895599669 0
      outer loop
         vertex 1.53873830406168 2.775637355817 0
         vertex 1.52185239926619 2.70791169081776 5
         vertex 1.52185239926619 2.70791169081776 0
      endloop
   endfacet
   facet normal 0.984807753012208 -0.173648177666931 0
      outer loop
         vertex 1.52185239926619 2.70791169081776 0
         vertex 1.52185239926619 2.70791169081776 5
         vertex 1.50973193125843 2.63917310096007 5
      endloop
   endfacet
   facet normal 0.984807753012208 -0.173648177666929 2.75533332268368E-17
      outer loop
         vertex 1.52185239926619 2.70791169081776 0
         vertex 1.50973193125843 2.63917310096007 5
         vertex 1.50973193125843 2.63917310096007 0
      endloop
   endfacet
   facet normal 0.994521895368274 -0.10452846326765 3.40641130247988E-17
      outer loop
         vertex 1.50973193125843 2.63917310096007 0
         vertex 1.50973193125843 2.63917310096007 5
         vertex 1.50243594974018 2.56975647374413 5
      endloop
   endfacet
   facet normal 0.994521895368274 -0.104528463267652 0
      outer loop
         vertex 1.50973193125843 2.63917310096007 0
         vertex 1.50243594974018 2.56975647374413 5
         vertex 1.50243594974018 2.56975647374413 0
      endloop
   endfacet
   facet normal 0.999390827019096 -0.034899496702503 0
      outer loop
         vertex 1.50243594974018 2.56975647374413 0
         vertex 1.50243594974018 2.56975647374413 5
         vertex 1.5 2.5 5
      endloop
   endfacet
   facet normal 0 0 1
      outer loop
         vertex 3.49756405025982 2.43024352625587 5
         vertex 5 0 5
         vertex 3.5 2.5 5
      endloop
   endfacet
   facet normal 0 0 1
      outer loop
         vertex 3.5 2.5 5
         vertex 5 0 5
         vertex 5 5 5
      endloop
   endfacet
   facet normal 0 0 1
      outer loop
         vertex 3.5 2.5 5
         vertex 5 5 5
         vertex 3.49756405025982 2.56975647374413 5
      endloop
   endfacet
   facet normal 0 0 1
      outer loop
         vertex 3.49756405025982 2.56975647374413 5
         vertex 5 5 5
         vertex 3.49026806874157 2.63917310096007 5
      endloop
   endfacet
   facet normal 0 0 1
      outer loop
         vertex 3.49756405025982 2.43024352625587 5
         vertex 3.49026806874157 2.36082689903993 5
         vertex 5 0 5
      endloop
   endfacet
   facet normal 0 0 1
      outer loop
         vertex 5 0 5
         vertex 3.49026806874157 2.36082689903993 5
         vertex 3.47814760073381 2.29208830918224 5
      endloop
   endfacet
   facet normal 0 0 1
      outer loop
         vertex 5 0 5
         vertex 3.47814760073381 2.29208830918224 5
         vertex 3.46126169593832 2.224362644183 5
      endloop
   endfacet
   facet normal 0 0 1
      outer loop
         vertex 3.46126169593832 2.224362644183 5
         vertex 3.43969262078591 2.15797985667433 5
         vertex 5 0 5
      endloop
   endfacet
   facet normal 0 0 1
      outer loop
         vertex 5 0 5
         vertex 3.43969262078591 2.15797985667433 5
         vertex 3.4135454576426 2.0932633569242 5
      endloop
   endfacet
   facet normal 0 0 1
      outer loop
         vertex 5 0 5
         vertex 3.4135454576426 2.0932633569242 5
         vertex 3.38294759285893 2.03052843721411 5
      endloop
   endfacet
   facet normal 0 0 1
      outer loop
         vertex 3.38294759285893 2.03052843721411 5
         vertex 3.34804809615643 1.9700807357668 5
         vertex 5 0 5
      endloop
   endfacet
   facet normal 0 0 1
      outer loop
         vertex 5 0 5
         vertex 3.34804809615643 1.9700807357668 5
         vertex 3.30901699437495 1.91221474770753 5
      endloop
   endfacet
   facet normal 0 0 1
      outer loop
         vertex 5 0 5
         vertex 3.30901699437495 1.91221474770753 5
         vertex 3.26604444311898 1.85721239031346 5
      endloop
   endfacet
   facet normal 0 0 1
      outer loop
         vertex 3.26604444311898 1.85721239031346 5
         vertex 3.21933980033865 1.805341629541 5
         vertex 5 0 5
      endloop
   endfacet
   facet normal 0 0 1
      outer loop
         vertex 5 0 5
         vertex 3.21933980033865 1.805341629541 5
         vertex 3.16913060635886 1.75685517452261 5
      endloop
   endfacet
   facet normal 0 0 1
      outer loop
         vertex 5 0 5
         vertex 3.16913060635886 1.75685517452261 5
         vertex 3.11566147532566 1.71198924639328 5
      endloop
   endfacet
   facet normal 0 0 1
      outer loop
         vertex 3.11566147532566 1.71198924639328 5
         vertex 3.05919290347075 1.67096242744496 5
         vertex 5 0 5
      endloop
   endfacet
   facet normal 0 0 1
      outer loop
         vertex 5 0 5
         vertex 3.05919290347075 1.67096242744496 5
         vertex 3 1.63397459621556 5
      endloop
   endfacet
   facet normal 0 0 1
      outer loop
         vertex 5 0 5
         vertex 3 1.63397459621556 5
         vertex 2.93837114678908 1.60120595370083 5
      endloop
   endfacet
   facet normal 0 0 1
      outer loop
         vertex 2.93837114678908 1.60120595370083 5
         vertex 2.87460659341591 1.57281614543321 5
         vertex 5 0 5
      endloop
   endfacet
   facet normal 0 0 1
      outer loop
         vertex 5 0 5
         vertex 2.87460659341591 1.57281614543321 5
         vertex 2.80901699437495 1.54894348370485 5
      endloop
   endfacet
   facet normal 0 0 1
      outer loop
         vertex 5 0 5
         vertex 2.80901699437495 1.54894348370485 5
         vertex 2.74192189559967 1.529704273724 5
      endloop
   endfacet
   facet normal 0 0 1
      outer loop
         vertex 2.74192189559967 1.529704273724 5
         vertex 2.67364817766693 1.51519224698779 5
         vertex 5 0 5
      endloop
   endfacet
   facet normal 0 0 1
      outer loop
         vertex 5 0 5
         vertex 2.67364817766693 1.51519224698779 5
         vertex 2.60452846326765 1.50547810463173 5
      endloop
   endfacet
   facet normal 0 0 1
      outer loop
         vertex 5 0 5
         vertex 2.60452846326765 1.50547810463173 5
         vertex 2.5348994967025 1.5006091729809 5
      endloop
   endfacet
   facet normal 0 0 1
      outer loop
         vertex 2.5348994967025 1.5006091729809 5
         vertex 2.4651005032975 1.5006091729809 5
         vertex 5 0 5
      endloop
   endfacet
   facet normal 0 0 1
      outer loop
         vertex 5 0 5
         vertex 2.4651005032975 1.5006091729809 5
         vertex 0 0 5
      endloop
   endfacet
   facet normal 0 0 1
      outer loop
         vertex 2.4651005032975 1.5006091729809 5
         vertex 2.39547153673235 1.50547810463173 5
         vertex 0 0 5
      endloop
   endfacet
   facet normal 0 0 1
      outer loop
         vertex 0 0 5
         vertex 2.39547153673235 1.50547810463173 5
         vertex 2.32635182233307 1.51519224698779 5
      endloop
   endfacet
   facet normal 0 0 1
      outer loop
         vertex 0 0 5
         vertex 2.32635182233307 1.51519224698779 5
         vertex 2.25807810440033 1.529704273724 5
      endloop
   endfacet
   facet normal 0 0 1
      outer loop
         vertex 2.25807810440033 1.529704273724 5
         vertex 2.19098300562505 1.54894348370485 5
         vertex 0 0 5
      endloop
   endfacet
   facet normal 0 0 1
      outer loop
         vertex 0 0 5
         vertex 2.19098300562505 1.54894348370485 5
         vertex 2.12539340658409 1.57281614543321 5
      endloop
   endfacet
   facet normal 0 0 1
      outer loop
         vertex 0 0 5
         vertex 2.12539340658409 1.57281614543321 5
         vertex 2.06162885321092 1.60120595370083 5
      endloop
   endfacet
   facet normal 0 0 1
      outer loop
         vertex 2.06162885321092 1.60120595370083 5
         vertex 2 1.63397459621556 5
         vertex 0 0 5
      endloop
   endfacet
   facet normal 0 0 1
      outer loop
         vertex 0 0 5
         vertex 2 1.63397459621556 5
         vertex 1.94080709652925 1.67096242744496 5
      endloop
   endfacet
   facet normal 0 0 1
      outer loop
         vertex 0 0 5
         vertex 1.94080709652925 1.67096242744496 5
         vertex 1.88433852467434 1.71198924639328 5
      endloop
   endfacet
   facet normal 0 0 1
      outer loop
         vertex 1.88433852467434 1.71198924639328 5
         vertex 1.83086939364114 1.75685517452261 5
         vertex 0 0 5
      endloop
   endfacet
   facet normal 0 0 1
      outer loop
         vertex 0 0 5
         vertex 1.83086939364114 1.75685517452261 5
         vertex 1.78066019966135 1.805341629541 5
      endloop
   endfacet
   facet normal 0 0 1
      outer loop
         vertex 0 0 5
         vertex 1.78066019966135 1.805341629541 5
         vertex 1.73395555688102 1.85721239031346 5
      endloop
   endfacet
   facet normal 0 0 1
      outer loop
         vertex 1.73395555688102 1.85721239031346 5
         vertex 1.69098300562505 1.91221474770753 5
         vertex 0 0 5
      endloop
   endfacet
   facet normal 0 0 1
      outer loop
         vertex 0 0 5
         vertex 1.69098300562505 1.91221474770753 5
         vertex 1.65195190384357 1.9700807357668 5
      endloop
   endfacet
   facet normal 0 0 1
      outer loop
         vertex 0 0 5
         vertex 1.65195190384357 1.9700807357668 5
         vertex 1.61705240714107 2.03052843721411 5
      endloop
   endfacet
   facet normal 0 0 1
      outer loop
         vertex 1.61705240714107 2.03052843721411 5
         vertex 1.5864545423574 2.0932633569242 5
         vertex 0 0 5
      endloop
   endfacet
   facet normal 0 0 1
      outer loop
         vertex 0 0 5
         vertex 1.5864545423574 2.0932633569242 5
         vertex 1.56030737921409 2.15797985667433 5
      endloop
   endfacet
   facet normal 0 0 1
      outer loop
         vertex 0 0 5
         vertex 1.56030737921409 2.15797985667433 5
         vertex 1.53873830406168 2.224362644183 5
      endloop
   endfacet
   facet normal 0 0 1
      outer loop
         vertex 1.53873830406168 2.224362644183 5
         vertex 1.52185239926619 2.29208830918224 5
         vertex 0 0 5
      endloop
   endfacet
   facet normal 0 0 1
      outer loop
         vertex 0 0 5
         vertex 1.52185239926619 2.29208830918224 5
         vertex 1.50973193125843 2.36082689903993 5
      endloop
   endfacet
   facet normal 0 0 1
      outer loop
         vertex 0 0 5
         vertex 1.50973193125843 2.36082689903993 5
         vertex 1.50243594974018 2.43024352625587 5
      endloop
   endfacet
   facet normal 0 0 1
      outer loop
         vertex 1.50243594974018 2.43024352625587 5
         vertex 1.5 2.5 5
         vertex 0 0 5
      endloop
   endfacet
   facet normal 0 0 1
      outer loop
         vertex 0 0 5
         vertex 1.5 2.5 5
         vertex 0 5 5
      endloop
   endfacet
   facet normal 0 0 1
      outer loop
         vertex 1.5 2.5 5
         vertex 1.50243594974018 2.56975647374413 5
         vertex 0 5 5
      endloop
   endfacet
   facet normal 0 0 1
      outer loop
         vertex 0 5 5
         vertex 1.50243594974018 2.56975647374413 5
         vertex 1.50973193125843 2.63917310096007 5
      endloop
   endfacet
   facet normal 0 0 1
      outer loop
         vertex 0 5 5
         vertex 1.50973193125843 2.63917310096007 5
         vertex 1.52185239926619 2.70791169081776 5
      endloop
   endfacet
   facet normal 0 0 1
      outer loop
         vertex 1.52185239926619 2.70791169081776 5
         vertex 1.53873830406168 2.775637355817 5
         vertex 0 5 5
      endloop
   endfacet
   facet normal 0 0 1
      outer loop
         vertex 0 5 5
         vertex 1.53873830406168 2.775637355817 5
         vertex 1.56030737921409 2.84202014332567 5
      endloop
   endfacet
   facet normal 0 0 1
      outer loop
         vertex 0 5 5
         vertex 1.56030737921409 2.84202014332567 5
         vertex 1.5864545423574 2.9067366430758 5
      endloop
   endfacet
   facet normal 0 0 1
      outer loop
         vertex 1.5864545423574 2.9067366430758 5
         vertex 1.61705240714107 2.96947156278589 5
         vertex 0 5 5
      endloop
   endfacet
   facet normal 0 0 1
      outer loop
         vertex 0 5 5
         vertex 1.61705240714107 2.96947156278589 5
         vertex 1.65195190384357 3.02991926423321 5
      endloop
   endfacet
   facet normal 0 0 1
      outer loop
         vertex 0 5 5
         vertex 1.65195190384357 3.02991926423321 5
         vertex 1.69098300562505 3.08778525229247 5
      endloop
   endfacet
   facet normal 0 0 1
      outer loop
         vertex 1.69098300562505 3.08778525229247 5
         vertex 1.73395555688102 3.14278760968654 5
         vertex 0 5 5
      endloop
   endfacet
   facet normal 0 0 1
      outer loop
         vertex 0 5 5
         vertex 1.73395555688102 3.14278760968654 5
         vertex 1.78066019966135 3.194658370459 5
      endloop
   endfacet
   facet normal 0 0 1
      outer loop
         vertex 0 5 5
         vertex 1.78066019966135 3.194658370459 5
         vertex 1.83086939364114 3.24314482547739 5
      endloop
   endfacet
   facet normal 0 0 1
      outer loop
         vertex 1.83086939364114 3.24314482547739 5
         vertex 1.88433852467434 3.28801075360672 5
         vertex 0 5 5
      endloop
   endfacet
   facet normal 0 0 1
      outer loop
         vertex 0 5 5
         vertex 1.88433852467434 3.28801075360672 5
         vertex 1.94080709652925 3.32903757255504 5
      endloop
   endfacet
   facet normal 0 0 1
      outer loop
         vertex 0 5 5
         vertex 1.94080709652925 3.32903757255504 5
         vertex 2 3.36602540378444 5
      endloop
   endfacet
   facet normal 0 0 1
      outer loop
         vertex 2 3.36602540378444 5
         vertex 2.06162885321092 3.39879404629917 5
         vertex 0 5 5
      endloop
   endfacet
   facet normal 0 0 1
      outer loop
         vertex 0 5 5
         vertex 2.06162885321092 3.39879404629917 5
         vertex 2.12539340658409 3.42718385456679 5
      endloop
   endfacet
   facet normal 0 0 1
      outer loop
         vertex 0 5 5
         vertex 2.12539340658409 3.42718385456679 5
         vertex 2.19098300562505 3.45105651629515 5
      endloop
   endfacet
   facet normal 0 0 1
      outer loop
         vertex 2.19098300562505 3.45105651629515 5
         vertex 2.25807810440033 3.470295726276 5
         vertex 0 5 5
      endloop
   endfacet
   facet normal 0 0 1
      outer loop
         vertex 0 5 5
         vertex 2.25807810440033 3.470295726276 5
         vertex 2.32635182233307 3.48480775301221 5
      endloop
   endfacet
   facet normal 0 0 1
      outer loop
         vertex 0 5 5
         vertex 2.32635182233307 3.48480775301221 5
         vertex 2.39547153673235 3.49452189536827 5
      endloop
   endfacet
   facet normal 0 0 1
      outer loop
         vertex 2.39547153673235 3.49452189536827 5
         vertex 2.4651005032975 3.4993908270191 5
         vertex 0 5 5
      endloop
   endfacet
   facet normal 0 0 1
      outer loop
         vertex 0 5 5
         vertex 2.4651005032975 3.4993908270191 5
         vertex 2.5348994967025 3.4993908270191 5
      endloop
   endfacet
   facet normal 0 0 1
      outer loop
         vertex 0 5 5
         vertex 2.5348994967025 3.4993908270191 5
         vertex 5 5 5
      endloop
   endfacet
   facet normal 0 0 1
      outer loop
         vertex 5 5 5
         vertex 2.5348994967025 3.4993908270191 5
         vertex 2.60452846326765 3.49452189536827 5
      endloop
   endfacet
   facet normal 0 0 1
      outer loop
         vertex 5 5 5
         vertex 2.60452846326765 3.49452189536827 5
         vertex 2.67364817766693 3.48480775301221 5
      endloop
   endfacet
   facet normal 0 0 1
      outer loop
         vertex 2.67364817766693 3.48480775301221 5
         vertex 2.74192189559967 3.470295726276 5
         vertex 5 5 5
      endloop
   endfacet
   facet normal 0 0 1
      outer loop
         vertex 5 5 5
         vertex 2.74192189559967 3.470295726276 5
         vertex 2.80901699437495 3.45105651629515 5
      endloop
   endfacet
   facet normal 0 0 1
      outer loop
         vertex 5 5 5
         vertex 2.80901699437495 3.45105651629515 5
         vertex 2.87460659341591 3.42718385456679 5
      endloop
   endfacet
   facet normal 0 0 1
      outer loop
         vertex 2.87460659341591 3.42718385456679 5
         vertex 2.93837114678908 3.39879404629917 5
         vertex 5 5 5
      endloop
   endfacet
   facet normal 0 0 1
      outer loop
         vertex 5 5 5
         vertex 2.93837114678908 3.39879404629917 5
         vertex 3 3.36602540378444 5
      endloop
   endfacet
   facet normal 0 0 1
      outer loop
         vertex 5 5 5
         vertex 3 3.36602540378444 5
         vertex 3.05919290347075 3.32903757255504 5
      endloop
   endfacet
   facet normal 0 0 1
      outer loop
         vertex 3.05919290347075 3.32903757255504 5
         vertex 3.11566147532566 3.28801075360672 5
         vertex 5 5 5
      endloop
   endfacet
   facet normal 0 0 1
      outer loop
         vertex 5 5 5
         vertex 3.11566147532566 3.28801075360672 5
         vertex 3.16913060635886 3.24314482547739 5
      endloop
   endfacet
   facet normal 0 0 1
      outer loop
         vertex 5 5 5
         vertex 3.16913060635886 3.24314482547739 5
         vertex 3.21933980033865 3.194658370459 5
      endloop
   endfacet
   facet normal 0 0 1
      outer loop
         vertex 3.21933980033865 3.194658370459 5
         vertex 3.26604444311898 3.14278760968654 5
         vertex 5 5 5
      endloop
   endfacet
   facet normal 0 0 1
      outer loop
         vertex 5 5 5
         vertex 3.26604444311898 3.14278760968654 5
         vertex 3.30901699437495 3.08778525229247 5
      endloop
   endfacet
   facet normal 0 0 1
      outer loop
         vertex 5 5 5
         vertex 3.30901699437495 3.08778525229247 5
         vertex 3.34804809615643 3.02991926423321 5
      endloop
   endfacet
   facet normal 0 0 1
      outer loop
         vertex 3.34804809615643 3.02991926423321 5
         vertex 3.38294759285893 2.96947156278589 5
         vertex 5 5 5
      endloop
   endfacet
   facet normal 0 0 1
      outer loop
         vertex 5 5 5
         vertex 3.38294759285893 2.96947156278589 5
         vertex 3.4135454576426 2.9067366430758 5
      endloop
   endfacet
   facet normal 0 0 1
      outer loop
         vertex 5 5 5
         vertex 3.4135454576426 2.9067366430758 5
         vertex 3.43969262078591 2.84202014332567 5
      endloop
   endfacet
   facet normal 0 0 1
      outer loop
         vertex 3.43969262078591 2.84202014332567 5
         vertex 3.46126169593832 2.775637355817 5
         vertex 5 5 5
      endloop
   endfacet
   facet normal 0 0 1
      outer loop
         vertex 5 5 5
         vertex 3.46126169593832 2.775637355817 5
         vertex 3.47814760073381 2.70791169081776 5
      endloop
   endfacet
   facet normal 0 0 1
      outer loop
         vertex 5 5 5
         vertex 3.47814760073381 2.70791169081776 5
         vertex 3.49026806874157 2.63917310096007 5
      endloop
   endfacet
   facet normal 0 0 -1
      outer loop
         vertex 2.60452846326765 3.49452189536827 0
         vertex 2.5348994967025 3.4993908270191 0
         vertex 5 5 0
      endloop
   endfacet
   facet normal 0 0 -1
      outer loop
         vertex 5 5 0
         vertex 2.5348994967025 3.4993908270191 0
         vertex 2.4651005032975 3.4993908270191 0
      endloop
   endfacet
   facet normal 0 0 -1
      outer loop
         vertex 5 5 0
         vertex 2.4651005032975 3.4993908270191 0
         vertex 0 5 0
      endloop
   endfacet
   facet normal 0 0 -1
      outer loop
         vertex 0 5 0
         vertex 2.4651005032975 3.4993908270191 0
         vertex 2.39547153673235 3.49452189536827 0
      endloop
   endfacet
   facet normal 0 0 -1
      outer loop
         vertex 0 5 0
         vertex 2.39547153673235 3.49452189536827 0
         vertex 2.32635182233307 3.48480775301221 0
      endloop
   endfacet
   facet normal 0 0 -1
      outer loop
         vertex 3.49026806874157 2.36082689903993 0
         vertex 3.49756405025982 2.43024352625587 0
         vertex 5 0 0
      endloop
   endfacet
   facet normal 0 0 -1
      outer loop
         vertex 5 0 0
         vertex 3.49756405025982 2.43024352625587 0
         vertex 3.5 2.5 0
      endloop
   endfacet
   facet normal 0 0 -1
      outer loop
         vertex 5 0 0
         vertex 3.5 2.5 0
         vertex 5 5 0
      endloop
   endfacet
   facet normal 0 0 -1
      outer loop
         vertex 5 5 0
         vertex 3.5 2.5 0
         vertex 3.49756405025982 2.56975647374413 0
      endloop
   endfacet
   facet normal 0 0 -1
      outer loop
         vertex 5 5 0
         vertex 3.49756405025982 2.56975647374413 0
         vertex 3.49026806874157 2.63917310096007 0
      endloop
   endfacet
   facet normal 0 0 -1
      outer loop
         vertex 2.39547153673235 1.50547810463173 0
         vertex 2.4651005032975 1.5006091729809 0
         vertex 0 0 0
      endloop
   endfacet
   facet normal 0 0 -1
      outer loop
         vertex 0 0 0
         vertex 2.4651005032975 1.5006091729809 0
         vertex 2.5348994967025 1.5006091729809 0
      endloop
   endfacet
   facet normal 0 0 -1
      outer loop
         vertex 0 0 0
         vertex 2.5348994967025 1.5006091729809 0
         vertex 5 0 0
      endloop
   endfacet
   facet normal 0 0 -1
      outer loop
         vertex 5 0 0
         vertex 2.5348994967025 1.5006091729809 0
         vertex 2.60452846326765 1.50547810463173 0
      endloop
   endfacet
   facet normal 0 0 -1
      outer loop
         vertex 5 0 0
         vertex 2.60452846326765 1.50547810463173 0
         vertex 2.67364817766693 1.51519224698779 0
      endloop
   endfacet
   facet normal 0 0 -1
      outer loop
         vertex 1.50973193125843 2.63917310096007 0
         vertex 1.50243594974018 2.56975647374413 0
         vertex 0 5 0
      endloop
   endfacet
   facet normal 0 0 -1
      outer loop
         vertex 0 5 0
         vertex 1.50243594974018 2.56975647374413 0
         vertex 1.5 2.5 0
      endloop
   endfacet
   facet normal 0 0 -1
      outer loop
         vertex 0 5 0
         vertex 1.5 2.5 0
         vertex 0 0 0
      endloop
   endfacet
   facet normal 0 0 -1
      outer loop
         vertex 0 0 0
         vertex 1.5 2.5 0
         vertex 1.50243594974018 2.43024352625587 0
      endloop
   endfacet
   facet normal 0 0 -1
      outer loop
         vertex 0 0 0
         vertex 1.50243594974018 2.43024352625587 0
         vertex 1.50973193125843 2.36082689903993 0
      endloop
   endfacet
   facet normal 0 0 -1
      outer loop
         vertex 1.50973193125843 2.36082689903993 0
         vertex 1.52185239926619 2.29208830918224 0
         vertex 0 0 0
      endloop
   endfacet
   facet normal 0 0 -1
      outer loop
         vertex 0 0 0
         vertex 1.52185239926619 2.29208830918224 0
         vertex 1.53873830406168 2.224362644183 0
      endloop
   endfacet
   facet normal 0 0 -1
      outer loop
         vertex 0 0 0
         vertex 1.53873830406168 2.224362644183 0
         vertex 1.56030737921409 2.15797985667433 0
      endloop
   endfacet
   facet normal 0 0 -1
      outer loop
         vertex 1.56030737921409 2.15797985667433 0
         vertex 1.5864545423574 2.0932633569242 0
         vertex 0 0 0
      endloop
   endfacet
   facet normal 0 0 -1
      outer loop
         vertex 0 0 0
         vertex 1.5864545423574 2.0932633569242 0
         vertex 1.61705240714107 2.03052843721411 0
      endloop
   endfacet
   facet normal 0 0 -1
      outer loop
         vertex 0 0 0
         vertex 1.61705240714107 2.03052843721411 0
         vertex 1.65195190384357 1.9700807357668 0
      endloop
   endfacet
   facet normal 0 0 -1
      outer loop
         vertex 1.65195190384357 1.9700807357668 0
         vertex 1.69098300562505 1.91221474770753 0
         vertex 0 0 0
      endloop
   endfacet
   facet normal 0 0 -1
      outer loop
         vertex 0 0 0
         vertex 1.69098300562505 1.91221474770753 0
         vertex 1.73395555688102 1.85721239031346 0
      endloop
   endfacet
   facet normal 0 0 -1
      outer loop
         vertex 0 0 0
         vertex 1.73395555688102 1.85721239031346 0
         vertex 1.78066019966135 1.805341629541 0
      endloop
   endfacet
   facet normal 0 0 -1
      outer loop
         vertex 1.78066019966135 1.805341629541 0
         vertex 1.83086939364114 1.75685517452261 0
         vertex 0 0 0
      endloop
   endfacet
   facet normal 0 0 -1
      outer loop
         vertex 0 0 0
         vertex 1.83086939364114 1.75685517452261 0
         vertex 1.88433852467434 1.71198924639328 0
      endloop
   endfacet
   facet normal 0 0 -1
      outer loop
         vertex 0 0 0
         vertex 1.88433852467434 1.71198924639328 0
         vertex 1.94080709652925 1.67096242744496 0
      endloop
   endfacet
   facet normal 0 0 -1
      outer loop
         vertex 1.94080709652925 1.67096242744496 0
         vertex 2 1.63397459621556 0
         vertex 0 0 0
      endloop
   endfacet
   facet normal 0 0 -1
      outer loop
         vertex 0 0 0
         vertex 2 1.63397459621556 0
         vertex 2.06162885321092 1.60120595370083 0
      endloop
   endfacet
   facet normal 0 0 -1
      outer loop
         vertex 0 0 0
         vertex 2.06162885321092 1.60120595370083 0
         vertex 2.12539340658409 1.57281614543321 0
      endloop
   endfacet
   facet normal 0 0 -1
      outer loop
         vertex 2.12539340658409 1.57281614543321 0
         vertex 2.19098300562505 1.54894348370485 0
         vertex 0 0 0
      endloop
   endfacet
   facet normal 0 0 -1
      outer loop
         vertex 0 0 0
         vertex 2.19098300562505 1.54894348370485 0
         vertex 2.25807810440033 1.529704273724 0
      endloop
   endfacet
   facet normal 0 0 -1
      outer loop
         vertex 0 0 0
         vertex 2.25807810440033 1.529704273724 0
         vertex 2.32635182233307 1.51519224698779 0
      endloop
   endfacet
   facet normal 0 0 -1
      outer loop
         vertex 2.32635182233307 1.51519224698779 0
         vertex 2.39547153673235 1.50547810463173 0
         vertex 0 0 0
      endloop
   endfacet
   facet normal 0 0 -1
      outer loop
         vertex 2.67364817766693 1.51519224698779 0
         vertex 2.74192189559967 1.529704273724 0
         vertex 5 0 0
      endloop
   endfacet
   facet normal 0 0 -1
      outer loop
         vertex 5 0 0
         vertex 2.74192189559967 1.529704273724 0
         vertex 2.80901699437495 1.54894348370485 0
      endloop
   endfacet
   facet normal 0 0 -1
      outer loop
         vertex 5 0 0
         vertex 2.80901699437495 1.54894348370485 0
         vertex 2.87460659341591 1.57281614543321 0
      endloop
   endfacet
   facet normal 0 0 -1
      outer loop
         vertex 2.87460659341591 1.57281614543321 0
         vertex 2.93837114678908 1.60120595370083 0
         vertex 5 0 0
      endloop
   endfacet
   facet normal 0 0 -1
      outer loop
         vertex 5 0 0
         vertex 2.93837114678908 1.60120595370083 0
         vertex 3 1.63397459621556 0
      endloop
   endfacet
   facet normal 0 0 -1
      outer loop
         vertex 5 0 0
         vertex 3 1.63397459621556 0
         vertex 3.05919290347075 1.67096242744496 0
      endloop
   endfacet
   facet normal 0 0 -1
      outer loop
         vertex 3.05919290347075 1.67096242744496 0
         vertex 3.11566147532566 1.71198924639328 0
         vertex 5 0 0
      endloop
   endfacet
   facet normal 0 0 -1
      outer loop
         vertex 5 0 0
         vertex 3.11566147532566 1.71198924639328 0
         vertex 3.16913060635886 1.75685517452261 0
      endloop
   endfacet
   facet normal 0 0 -1
      outer loop
         vertex 5 0 0
         vertex 3.16913060635886 1.75685517452261 0
         vertex 3.21933980033865 1.805341629541 0
      endloop
   endfacet
   facet normal 0 0 -1
      outer loop
         vertex 3.21933980033865 1.805341629541 0
         vertex 3.26604444311898 1.85721239031346 0
         vertex 5 0 0
      endloop
   endfacet
   facet normal 0 0 -1
      outer loop
         vertex 5 0 0
         vertex 3.26604444311898 1.85721239031346 0
         vertex 3.30901699437495 1.91221474770753 0
      endloop
   endfacet
   facet normal 0 0 -1
      outer loop
         vertex 5 0 0
         vertex 3.30901699437495 1.91221474770753 0
         vertex 3.34804809615643 1.9700807357668 0
      endloop
   endfacet
   facet normal 0 0 -1
      outer loop
         vertex 3.34804809615643 1.9700807357668 0
         vertex 3.38294759285893 2.03052843721411 0
         vertex 5 0 0
      endloop
   endfacet
   facet normal 0 0 -1
      outer loop
         vertex 5 0 0
         vertex 3.38294759285893 2.03052843721411 0
         vertex 3.4135454576426 2.0932633569242 0
      endloop
   endfacet
   facet normal 0 0 -1
      outer loop
         vertex 5 0 0
         vertex 3.4135454576426 2.0932633569242 0
         vertex 3.43969262078591 2.15797985667433 0
      endloop
   endfacet
   facet normal 0 0 -1
      outer loop
         vertex 3.43969262078591 2.15797985667433 0
         vertex 3.46126169593832 2.224362644183 0
         vertex 5 0 0
      endloop
   endfacet
   facet normal 0 0 -1
      outer loop
         vertex 5 0 0
         vertex 3.46126169593832 2.224362644183 0
         vertex 3.47814760073381 2.29208830918224 0
      endloop
   endfacet
   facet normal 0 0 -1
      outer loop
         vertex 5 0 0
         vertex 3.47814760073381 2.29208830918224 0
         vertex 3.49026806874157 2.36082689903993 0
      endloop
   endfacet
   facet normal 0 0 -1
      outer loop
         vertex 3.49026806874157 2.63917310096007 0
         vertex 3.47814760073381 2.70791169081776 0
         vertex 5 5 0
      endloop
   endfacet
   facet normal 0 0 -1
      outer loop
         vertex 5 5 0
         vertex 3.47814760073381 2.70791169081776 0
         vertex 3.46126169593832 2.775637355817 0
      endloop
   endfacet
   facet normal 0 0 -1
      outer loop
         vertex 5 5 0
         vertex 3.46126169593832 2.775637355817 0
         vertex 3.43969262078591 2.84202014332567 0
      endloop
   endfacet
   facet normal 0 0 -1
      outer loop
         vertex 3.43969262078591 2.84202014332567 0
         vertex 3.4135454576426 2.9067366430758 0
         vertex 5 5 0
      endloop
   endfacet
   facet normal 0 0 -1
      outer loop
         vertex 5 5 0
         vertex 3.4135454576426 2.9067366430758 0
         vertex 3.38294759285893 2.96947156278589 0
      endloop
   endfacet
   facet normal 0 0 -1
      outer loop
         vertex 5 5 0
         vertex 3.38294759285893 2.96947156278589 0
         vertex 3.34804809615643 3.02991926423321 0
      endloop
   endfacet
   facet normal 0 0 -1
      outer loop
         vertex 3.34804809615643 3.02991926423321 0
         vertex 3.30901699437495 3.08778525229247 0
         vertex 5 5 0
      endloop
   endfacet
   facet normal 0 0 -1
      outer loop
         vertex 5 5 0
         vertex 3.30901699437495 3.08778525229247 0
         vertex 3.26604444311898 3.14278760968654 0
      endloop
   endfacet
   facet normal 0 0 -1
      outer loop
         vertex 5 5 0
         vertex 3.26604444311898 3.14278760968654 0
         vertex 3.21933980033865 3.194658370459 0
      endloop
   endfacet
   facet normal 0 0 -1
      outer loop
         vertex 3.21933980033865 3.194658370459 0
         vertex 3.16913060635886 3.24314482547739 0
         vertex 5 5 0
      endloop
   endfacet
   facet normal 0 0 -1
      outer loop
         vertex 5 5 0
         vertex 3.16913060635886 3.24314482547739 0
         vertex 3.11566147532566 3.28801075360672 0
      endloop
   endfacet
   facet normal 0 0 -1
      outer loop
         vertex 5 5 0
         vertex 3.11566147532566 3.28801075360672 0
         vertex 3.05919290347075 3.32903757255504 0
      endloop
   endfacet
   facet normal 0 0 -1
      outer loop
         vertex 3.05919290347075 3.32903757255504 0
         vertex 3 3.36602540378444 0
         vertex 5 5 0
      endloop
   endfacet
   facet normal 0 0 -1
      outer loop
         vertex 5 5 0
         vertex 3 3.36602540378444 0
         vertex 2.93837114678908 3.39879404629917 0
      endloop
   endfacet
   facet normal 0 0 -1
      outer loop
         vertex 5 5 0
         vertex 2.93837114678908 3.39879404629917 0
         vertex 2.87460659341591 3.42718385456679 0
      endloop
   endfacet
   facet normal 0 0 -1
      outer loop
         vertex 2.87460659341591 3.42718385456679 0
         vertex 2.80901699437495 3.45105651629515 0
         vertex 5 5 0
      endloop
   endfacet
   facet normal 0 0 -1
      outer loop
         vertex 5 5 0
         vertex 2.80901699437495 3.45105651629515 0
         vertex 2.74192189559967 3.470295726276 0
      endloop
   endfacet
   facet normal 0 0 -1
      outer loop
         vertex 5 5 0
         vertex 2.74192189559967 3.470295726276 0
         vertex 2.67364817766693 3.48480775301221 0
      endloop
   endfacet
   facet normal 0 0 -1
      outer loop
         vertex 2.67364817766693 3.48480775301221 0
         vertex 2.60452846326765 3.49452189536827 0
         vertex 5 5 0
      endloop
   endfacet
   facet normal 0 0 -1
      outer loop
         vertex 2.32635182233307 3.48480775301221 0
         vertex 2.25807810440033 3.470295726276 0
         vertex 0 5 0
      endloop
   endfacet
   facet normal 0 0 -1
      outer loop
         vertex 0 5 0
         vertex 2.25807810440033 3.470295726276 0
         vertex 2.19098300562505 3.45105651629515 0
      endloop
   endfacet
   facet normal 0 0 -1
      outer loop
         vertex 0 5 0
         vertex 2.19098300562505 3.45105651629515 0
         vertex 2.12539340658409 3.42718385456679 0
      endloop
   endfacet
   facet normal 0 0 -1
      outer loop
         vertex 2.12539340658409 3.42718385456679 0
         vertex 2.06162885321092 3.39879404629917 0
         vertex 0 5 0
      endloop
   endfacet
   facet normal 0 0 -1
      outer loop
         vertex 0 5 0
         vertex 2.06162885321092 3.39879404629917 0
         vertex 2 3.36602540378444 0
      endloop
   endfacet
   facet normal 0 0 -1
      outer loop
         vertex 0 5 0
         vertex 2 3.36602540378444 0
         vertex 1.94080709652925 3.32903757255504 0
      endloop
   endfacet
   facet normal 0 0 -1
      outer loop
         vertex 1.94080709652925 3.32903757255504 0
         vertex 1.88433852467434 3.28801075360672 0
         vertex 0 5 0
      endloop
   endfacet
   facet normal 0 0 -1
      outer loop
         vertex 0 5 0
         vertex 1.88433852467434 3.28801075360672 0
         vertex 1.83086939364114 3.24314482547739 0
      endloop
   endfacet
   facet normal 0 0 -1
      outer loop
         vertex 0 5 0
         vertex 1.83086939364114 3.24314482547739 0
         vertex 1.78066019966135 3.194658370459 0
      endloop
   endfacet
   facet normal 0 0 -1
      outer loop
         vertex 1.78066019966135 3.194658370459 0
         vertex 1.73395555688102 3.14278760968654 0
         vertex 0 5 0
      endloop
   endfacet
   facet normal 0 0 -1
      outer loop
         vertex 0 5 0
         vertex 1.73395555688102 3.14278760968654 0
         vertex 1.69098300562505 3.08778525229247 0
      endloop
   endfacet
   facet normal 0 0 -1
      outer loop
         vertex 0 5 0
         vertex 1.69098300562505 3.08778525229247 0
         vertex 1.65195190384357 3.02991926423321 0
      endloop
   endfacet
   facet normal 0 0 -1
      outer loop
         vertex 1.65195190384357 3.02991926423321 0
         vertex 1.61705240714107 2.96947156278589 0
         vertex 0 5 0
      endloop
   endfacet
   facet normal 0 0 -1
      outer loop
         vertex 0 5 0
         vertex 1.61705240714107 2.96947156278589 0
         vertex 1.5864545423574 2.9067366430758 0
      endloop
   endfacet
   facet normal 0 0 -1
      outer loop
         vertex 0 5 0
         vertex 1.5864545423574 2.9067366430758 0
         vertex 1.56030737921409 2.84202014332567 0
      endloop
   endfacet
   facet normal 0 0 -1
      outer loop
         vertex 1.56030737921409 2.84202014332567 0
         vertex 1.53873830406168 2.775637355817 0
         vertex 0 5 0
      endloop
   endfacet
   facet normal 0 0 -1
      outer loop
         vertex 0 5 0
         vertex 1.53873830406168 2.775637355817 0
         vertex 1.52185239926619 2.70791169081776 0
      endloop
   endfacet
   facet normal 0 0 -1
      outer loop
         vertex 0 5 0
         vertex 1.52185239926619 2.70791169081776 0
         vertex 1.50973193125843 2.63917310096007 0
      endloop
   endfacet
   facet normal -1 0 0
      outer loop
         vertex 0 5 5
         vertex 0 5 0
         vertex 0 0 5
      endloop
   endfacet
   facet normal -1 0 0
      outer loop
         vertex 0 0 5
         vertex 0 5 0
         vertex 0 0 0
      endloop
   endfacet
   facet normal 1 0 0
      outer loop
         vertex 5 5 0
         vertex 5 5 5
         vertex 5 0 0
      endloop
   endfacet
   facet normal 1 0 0
      outer loop
         vertex 5 0 0
         vertex 5 5 5
         vertex 5 0 5
      endloop
   endfacet
   facet normal 0 1 0
      outer loop
         vertex 5 5 5
         vertex 5 5 0
         vertex 0 5 5
      endloop
   endfacet
   facet normal 0 1 0
      outer loop
         vertex 0 5 5
         vertex 5 5 0
         vertex 0 5 0
      endloop
   endfacet
   facet normal 0 -1 0
      outer loop
         vertex 5 0 0
         vertex 5 0 5
         vertex 0 0 0
      endloop
   endfacet
   facet normal 0 -1 0
      outer loop
         vertex 0 0 0
         vertex 5 0 5
         vertex 0 0 5
      endloop
   endfacet
endsolid
